<svg xmlns="http://www.w3.org/2000/svg" width="61" height="22" fill="none" viewBox="0 0 61 22"><path fill="currentcolor" d="M58.782 9.13c-.45-.46-7-1.84-11.17-2.36l-4.77-.59-2.07-1.21c-2.41-1.42-5.94-3.01-8.6-3.89-3.07-1.01-9.77-1.4-13.64-.79-3.41.54-5.25 1.36-7.26 3.25-.83.78-1.28.99-2.85 1.31-1.69.35-4.61 1.26-6.63 2.07-.88.35-.82.15-1.45 4.7-.42 3.05-.44 3.5-.13 4.1.39.76 1.48 1.77 2.53 2.32l.7.37-.15-.71c-.08-.39-.16-1.36-.17-2.16-.07-4.75 5.05-8.09 9.12-5.96 2.1 1.1 3.85 3.68 3.85 5.67 0 .62-.47 2.61-.81 3.42-.17.4.58.42 13.81.42h13.99l-.47-1.26c-.56-1.49-.51-3.66.13-4.99.58-1.23 2.21-2.84 3.45-3.4 3.96-1.82 8.93 1.52 8.93 6 0 .76-.1 1.73-.22 2.16-.14.51-.14.78.02.78.57 0 3.7-1.5 4.37-2.1l.74-.66-.54-3.17c-.29-1.75-.6-3.24-.67-3.31l-.04-.01Zm-54.9-.35c-.5.27-1.67 2.5-1.67 3.17 0 .32-.18.43-.71.43s-.68-.44-.45-1.32c.91-3.53.84-3.38 1.92-3.65.55-.14 1.08-.26 1.18-.27.4-.07.16 1.4-.27 1.63v.01Zm36.48 4.44c-.38 1.59-1.46 4.58-1.48 4.07 0-.13.3-1.85.67-3.83.37-1.97.73-4.3.79-5.16l.11-1.57-9.42-.27c-5.18-.15-9.44-.25-9.47-.22-.02.03-.12.34-.21.71l-.16.66h3.11v1.44h-1.65c-.91 0-1.65.05-1.65.1 0 .88.63 4.36 1.09 6.07.59 2.16.61 2.66.1 2.34-.33-.21-1.31-3.46-1.67-5.55-.29-1.66-.22-4.56.12-5.41.16-.38-.05-.42-2.56-.42-1.5 0-2.73-.06-2.73-.13 0-.37 1.34-2.76 2.03-3.63.69-.87.95-1.02 1.91-1.11 2.49-.24 10.59.08 11.74.46 1.51.51 10.17 4.81 10.17 5.05-.02 1.2-.54 5.1-.85 6.41l.01-.01Zm17.07-2.55c-.84.06-1.43-.11-2.88-.83-1-.5-1.82-1.04-1.82-1.21 0-.41.3-.39 2.18.14.87.25 2.03.76 2.58 1.14l1 .69-1.06.08v-.01Z"/><path fill="currentcolor" d="M47.402 9.76c-1.4.28-2.26.8-3.2 1.91-2.49 2.96-1.35 7.77 2.18 9.27 1.29.55 4.1.3 5.29-.47 1.93-1.25 2.82-3.05 2.65-5.33-.3-3.76-3.31-6.11-6.92-5.39v.01Zm-2.52 6.29c-.27-.71-.12-1.47.45-2.33.32-.48.59-.99.59-1.11 0-.12.08-.23.19-.23.29 0 1.23 2.11 1.09 2.45-.07.17-.58.59-1.15.94-.85.53-1.05.58-1.17.28Zm2.74 3.13c-.62-.15-2.64-1.91-2.64-2.3 0-.22 1.52-.25 2.26-.05.32.09.59.46.76 1.04.4 1.34.36 1.48-.38 1.3v.01Zm.06-6.32c-1.04-1.04-1.06-1.08-.54-1.24.7-.21 2.2-.02 2.95.38l.59.31-.79.56c-.44.31-.87.68-.96.81-.1.15-.59-.18-1.24-.83l-.01.01Zm4.22 4.85c-.25.14-.72.49-1.04.78-.69.63-1.88.99-1.88.57 0-.15.12-.69.27-1.2.3-1.03.58-1.11 2.18-.66.82.23.88.29.47.51Zm.5-1.87-.14.59-1.02-.65c-.99-.63-1.01-.67-.74-1.37.16-.4.36-.93.45-1.2.16-.45.2-.45.74.19.67.79.91 1.62.71 2.43v.01ZM8.252 9.77c-2.8.68-4.39 2.75-4.39 5.72 0 3.45 2.25 5.74 5.63 5.74 2.93 0 5.08-1.7 5.65-4.46.87-4.29-2.78-8.01-6.89-7.01v.01Zm-2.52 5.59c0-.93.35-1.79.86-2.09.18-.11.32-.35.32-.54 0-.57.2-.4.7.6.54 1.07.62 1.92.18 1.93-.16 0-.56.22-.88.47-.87.7-1.18.6-1.18-.38v.01Zm3.49 3.84s-.37.03-.73-.04c-.59-.12-2.53-1.86-2.53-2.28 0-.3 2-.2 2.4.12.35.28 1.03 2.03.86 2.21v-.01Zm.22-5.34-.91-.91c-1.02-1.02-1.09-1.21-.5-1.36.23-.06.65-.12.93-.14.61-.03 2.41.66 2.41.92 0 .1-.43.48-.97.83l-.97.65.01.01Zm2.96 4.19c-.82.71-2.14 1.34-2.43 1.16-.12-.07-.04-.63.16-1.23l.37-1.1 1.05.15c1.49.21 1.62.37.86 1.03l-.01-.01Zm.9-2.27-.08.65-.98-.64c-.54-.35-1-.65-1.03-.66-.03 0 .13-.53.35-1.15.22-.62.46-1.13.54-1.13.61 0 1.35 1.78 1.2 2.92v.01Z"/></svg>