<svg xmlns="http://www.w3.org/2000/svg" width="60" height="27" fill="none" viewBox="0 0 60 27"><path fill="currentcolor" d="M45.52 13.69c1.53-.75 4.45-.75 6.12.01 1 .45 1.59.53 4.16.53 2.24 0 2.99-.08 2.99-.3-.01-.59-.66-4.17-.84-4.59-.43-1.02-2.84-1.7-8.68-2.45-4.48-.57-4.86-.68-5.23-1.58-.1-.25-4.97-3.47-6.15-4.07C35.93.24 34.18.01 28.64 0h-5.2L23 1.86c-.33 1.4-.46 3.18-.54 7.11l-.1 5.24H33.4c10.96 0 11.04 0 12.13-.54l-.01.02Zm11.54-3.75c.16.16.29.7.29 1.21v.92h-2.04c-1.12 0-2.31-.12-2.64-.27-.52-.24-1.11-1.27-1.11-1.93 0-.33 5.16-.25 5.5.08v-.01ZM29.87 4.59V7h-5.3V5.96c0-.57.12-1.66.27-2.41l.28-1.37h4.75v2.41Zm2.17-.04V2.1l1.7.14c2 .17 3.6.84 6.11 2.58 3.3 2.28 3.43 2.17-2.59 2.17h-5.22V4.55ZM57.201 16.16h-2.51l.62 1.22c.34.67.68 1.77.76 2.43.13 1.07.2 1.19.65 1.08.28-.07.94-.2 1.47-.29 1.7-.3 1.81-.43 1.81-2.14 0-2.37.09-2.3-2.8-2.3ZM50.69 15.73c-1.29-.39-3.63-.36-4.58.05-1.72.75-3.22 3.24-3.22 5.34 0 2.41.96 4.05 2.95 5.01 1.77.86 2.99 1 4.59.53 2.91-.85 4.63-4.21 3.79-7.38-.36-1.37-2.12-3.14-3.53-3.56v.01Zm.97 2.57c.36.4.13.71-.7.92-.53.14-1.14.32-1.35.41-.31.13-.45-.07-.66-.92-.15-.6-.27-1.2-.27-1.34 0-.7 2.11-.05 2.99.93h-.01Zm-6.33.99c.14-.4.56-1.05.93-1.45.4-.43.92-.72 1.28-.72h.6l-.36 1.45-.36 1.45h-2.33l.25-.72-.01-.01Zm1.11 5.33-.59-.55c-.83-.78-1.27-1.71-1.27-2.71v-.85l1.33.65c.9.44 1.29.76 1.2.99-.07.19-.25.82-.4 1.41l-.27 1.07v-.01Zm4.14.22c-.65.35-2.08.34-3.05-.03l-.63-.24.93-.96c.51-.52 1.02-.95 1.13-.95.11 0 .65.42 1.2.93l1 .93-.59.32h.01Zm1.27-1.14c-.36.41-.41.38-.92-.6-.8-1.52-.73-2.02.34-2.59 1.35-.71 1.51-.65 1.51.6 0 1.12-.25 1.81-.92 2.59h-.01ZM8.331 13.69c.91-.41 1.62-.54 3.1-.54s2.2.12 3.1.54c.96.44 1.6.54 3.55.54h2.38V7h-9.37c-7.21 0-9.43.07-9.62.3-.49.6-.78 2.28-.78 4.58v2.35h3.22c2.82 0 3.37-.07 4.4-.54h.02Zm-4.78-2.26-.07 1.72-.9.07c-1.04.09-1.03.16-.63-2.48.28-1.89.54-2.18 1.29-1.43.3.3.37.78.32 2.11l-.01.01ZM14.58 16.27c-1.05-.61-3.11-1.06-4.11-.89-2.97.51-4.79 2.73-4.79 5.84 0 3.78 3.31 6.35 7.17 5.55 4.78-.99 5.94-8.03 1.73-10.5Zm-2.3.92c.92.12 2.66 1.17 2.66 1.59 0 .1-.52.32-1.15.48-1.99.5-1.79.63-2.32-1.51-.11-.46.16-.65.81-.56Zm-4.2 2.28c.22-.72 1-1.8 1.5-2.1.23-.13.61-.24.86-.25.39 0 .43.12.29.86-.34 1.84-.5 2.02-1.71 2.02-1.04 0-1.09-.03-.94-.54v.01Zm1.32 4.45c-.02.82-.47.65-1.32-.5-.62-.84-.86-1.43-.86-2.05 0-.48.05-.87.11-.87s.7.29 1.41.63l1.29.63-.31.87c-.17.48-.32 1.06-.32 1.28v.01Zm1.98 1.14c-1.84-.29-1.91-.4-.88-1.46.5-.51 1.03-.94 1.18-.94.3 0 2.19 1.87 2.03 2.01-.51.45-1.22.57-2.33.39Zm4.27-4.19c0 .89-.43 2.08-1.03 2.87-.34.45-.39.41-.99-.77-.35-.69-.63-1.39-.63-1.57 0-.18.46-.55 1.02-.84 1.44-.72 1.63-.69 1.63.31ZM17.579 16.25c0 .05.26.68.58 1.39.32.71.65 1.75.74 2.32l.16 1.02h21.34l.28-1.39c.15-.76.54-1.85.86-2.41l.58-1.02h-12.28c-6.75 0-12.28.04-12.28.09h.02ZM.24 16.62c-.32.59-.32 1.81 0 2.94.24.85.3.89 1.77 1.14.84.15 1.58.26 1.66.26.08 0 .2-.46.29-1.03.08-.56.42-1.61.75-2.31.33-.71.6-1.33.6-1.38 0-.05-1.08-.1-2.4-.1-2.13 0-2.43.05-2.65.47l-.02.01Z"/></svg>