<svg xmlns="http://www.w3.org/2000/svg" width="60" height="23" fill="none" viewBox="0 0 60 23"><path fill="currentcolor" d="M48.547 12.792c-1.08-.29-1.37-.29-2.43-.04-1.96.47-3.05 1.51-3.54 3.39-.53 2.05.79 4.8 2.78 5.81.95.48 2.99.49 3.93.01 3.74-1.9 3.25-8.12-.74-9.17Zm-.51 1.71c1.16.18 2.23.83 1.9 1.16-.13.13-.67.29-1.21.36-.8.1-.99.05-1.1-.32-.07-.24-.22-.65-.32-.89-.17-.41-.11-.44.73-.31Zm-2.54.32c.95-.62 1.22-.5 1.22.53 0 1.22-.38 1.51-1.54 1.17-.49-.15-.9-.34-.9-.42 0-.26.58-.86 1.21-1.28h.01Zm-.49 5.06c-.25-.13-.56-.58-.68-1.01-.12-.42-.31-.96-.4-1.18-.21-.51.1-.53 1.22-.07.91.37.99.61.58 1.75-.22.63-.34.71-.72.51Zm3.8.46c-.21.33-1.36.34-2.21.02l-.65-.24.69-.8.69-.8.82.78c.45.43.75.9.65 1.04h.01Zm1.76-3.16c.04.3-.17 1-.46 1.57l-.54 1.03-.46-1.05c-.25-.58-.42-1.16-.38-1.29.05-.13.46-.37.92-.52.78-.26.84-.24.91.26h.01Z"/><path fill="currentcolor" d="M58.887 11.942c0-.17-.55-.8-1.23-1.39-1.88-1.65-4.81-2.64-10.66-3.6-2.05-.34-2.79-.62-7.39-2.87-6.39-3.12-6.97-3.34-9.94-3.77-2.62-.38-8.87-.42-13.49-.08-1.47.11-4.16.3-5.96.42-3.73.25-4.22.37-4.06.98.08.3-.17.62-.81 1.05-.51.34-1.63 1.34-2.49 2.21-1.78 1.8-2.09 2.73-1.65 5 .38 1.95.33 2.38-.33 2.67-.94.42-1.08 1.04-.63 2.89.47 1.94 1.23 2.77 2.54 2.77.77 0 .83-.06.99-1.01.24-1.38.87-2.53 1.97-3.58 1.21-1.15 1.66-1.14.53.01-1.18 1.2-1.68 2.25-1.71 3.58-.04 1.6.43 2.74 1.51 3.69 1.81 1.6 4.12 1.71 6.25.31 1.62-1.06 2.27-2.08 2.26-3.58 0-2.13-1.42-4.17-3.46-5-1.07-.44-1.2-.65-.23-.38 3.01.84 5.3 4.17 4.22 6.13l-.29.53h13.52c13.29 0 13.52 0 13.27-.46-.38-.7-.3-1.68.25-2.86 1.67-3.59 5.96-4.6 9.03-2.14 1.05.84 2.14 2.86 2.14 3.96v.78h3.16c3.69 0 3.52.12 3.73-2.71.13-1.75.1-1.93-.45-2.57-.33-.38-.59-.83-.59-1v.02Zm-52.81 5.52c0-.28.23-.97.51-1.54.56-1.12.75-1.1 1.49.12.4.66.4.72 0 1.05-.23.2-.78.47-1.21.61-.73.24-.79.22-.79-.25v.01Zm2.45 3.14c-.42 0-1.92-1.56-1.69-1.76.05-.04.42-.19.82-.31 1.08-.35 1.34-.15 1.34 1.03 0 .88-.07 1.04-.47 1.04Zm1.57 0c-.58 0-.59 0-.24-.96.19-.53.42-1.07.5-1.2.08-.13.31-.18.52-.1.2.07.63.2.95.28.32.08.59.23.59.33 0 .4-1.75 1.66-2.31 1.66l-.01-.01Zm2.22-5.28c.38.49.45 2.43.08 2.43-.44 0-1.69-.71-1.69-.96 0-.13.25-.61.55-1.06.42-.64.78-.78 1.06-.42v.01Zm-1.05-.89c.24.21-1.18 1.43-1.66 1.43s-1.89-1.22-1.66-1.44c.11-.1.47-.23.81-.28.75-.12 2.24.05 2.51.29Zm9.3-7.88c-.12.11-11.15-1.13-11.29-1.27-.15-.15 2.33-2.65 3.01-3.03.27-.15 1.8-.4 3.41-.54 1.61-.15 3.26-.29 3.67-.3l.75-.03.27 2.55c.15 1.4.23 2.58.19 2.62h-.01Zm16.78 1.19c-.09.09-11.92-.81-14.02-1.06l-1.13-.14-.17-1.69c-.09-.93-.23-2.09-.3-2.56-.13-.82-.09-.88.56-.97.38-.06 1.85-.12 3.25-.14 3.52-.05 8.24 1.08 10.48 2.5.8.51.89.68 1.14 2.26.15.94.23 1.75.18 1.8h.01Z"/></svg>