<svg xmlns="http://www.w3.org/2000/svg" width="60" height="20" fill="currentcolor" viewBox="0 0 60 20"><path fill="currentColor" d="M45.758 11.338c-2.23 1-3.18 3.8-2.05 6.04.6 1.19 1.99 2.36 3 2.54 1.58.27 3.47-.68 4.58-2.3.51-.75.6-1.08.6-2.33 0-1.43-.01-1.47-.95-2.43-1.63-1.68-3.56-2.25-5.18-1.52Zm3.8 2.02.37.47c.45.57.51 2.13.09 2.13-.42 0-1.4-.84-1.4-1.23 0-.19.21-.57.47-.85l.47-.51v-.01Zm-4.49.75c.44-1 .79-1.3.8-.65 0 .14.13.51.3.83.28.55.27.59-.52 1.12-.45.3-.87.55-.93.55-.25 0-.09-.81.36-1.85h-.01Zm.93 3.75c-.42-.19-.98-.98-.98-1.36 0-.05.4-.11.9-.15.49-.04.97-.04 1.06 0 .09.04.16.45.16.91 0 .91-.21 1.03-1.13.61l-.01-.01Zm.64-4.21c-.31-.33-.57-.66-.57-.74 0-.08.31-.23.69-.34.92-.27.85-.27 1.61 0 .83.29.84.49.03.98-.35.21-.63.45-.63.55 0 .36-.58.14-1.12-.43l-.01-.02Zm3.36 3.35c-.45.88-2.68 1.59-2.36.75.07-.19.19-.57.26-.86.11-.46.24-.51 1.27-.51h1.14l-.32.62h.01Z"/><path fill="currentColor" d="M47.69 6.528c-1.29-.11-2.87-.28-3.5-.39-.64-.1-1.69-.14-2.33-.08-1.41.13-1.68 0-6.18-2.78-1.85-1.15-3.08-2.04-3.03-2.2.06-.16-.35-.4-1.1-.64-.98-.31-2.12-.39-6.16-.43-2.73-.03-5.72.03-6.64.13-2.2.25-3.92.62-3.92.84 0 .28-5.63 3.85-6.08 3.85-.22 0-.69-.1-1.05-.23-.51-.18-.75-.16-1.14.09-.28.18-1.34.38-2.5.47-3.03.23-2.96.17-2.96 2.32 0 1.63-.05 1.87-.55 2.47l-.55.66.36 1.48c.73 3 1.61 3.7 5.31 4.18l1.08.14.15-1.34c.19-1.67.5-2.45 1.41-3.5 1.83-2.11 5.09-2.23 7.12-.26 1.1 1.06 1.54 2.15 1.67 4.03l.11 1.68h25.23l.1-1.66c.14-2.4 1.12-4.03 3-5.01 1.01-.53 2.86-.58 3.94-.12 2.08.89 3.15 2.64 3.15 5.15v1.64l.58-.09c.32-.05 1.17-.14 1.9-.2.72-.06 1.91-.27 2.65-.45l1.33-.34.49-1.6c.6-1.95.55-3.92-.1-4.55-.98-.95-8.21-2.93-11.79-3.24v-.02Zm-23.21-.71c-.17.17-9.75-.39-9.96-.58-.12-.11-.09-.52.06-1.03.28-.94 1.1-1.69 2.74-2.5.87-.43 1.31-.49 3.64-.5h2.66l.48 2.26c.26 1.24.43 2.31.38 2.36v-.01Zm12.6.17c-.14.38-.35.4-3.66.26-1.93-.08-4.18-.2-5-.27l-1.49-.13-1.53-4.69 2.79.08c2.52.07 2.91.14 4.05.67 1.62.76 3.91 2.27 3.91 2.57 0 .13.24.43.54.67.39.32.5.55.39.84Z"/><path fill="currentColor" d="M13.391 11.228c-.82-.32-2.42-.21-3.33.21-2.27 1.06-3.05 3.46-1.93 5.91 1.27 2.76 4.4 3.5 6.59 1.55.41-.36.94-1.04 1.17-1.51.56-1.11.59-2.92.06-3.73-.55-.85-1.98-2.2-2.57-2.43h.01Zm-2.15 1.33c.71-.28.74-.28 1.62.09l.77.33-.6.64c-.76.8-1.13.8-1.89 0-.66-.7-.65-.74.11-1.05l-.01-.01Zm-2.27 3.31c-.19-.2.32-1.75.68-2.06.17-.15.32-.42.33-.61 0-.19.19.13.42.71.22.58.39 1.07.36 1.09-.03.02-.41.25-.85.52s-.86.43-.93.36l-.01-.01Zm2.15 2.22c-.59 0-1.57-.86-1.57-1.37 0-.22.27-.34.9-.39.49-.04.97-.04 1.06 0 .09.04.16.45.16.91 0 .76-.05.84-.54.84l-.01.01Zm3.18-1.07c-.39.76-.91 1.08-1.78 1.08-.42 0-.61-.09-.55-.27.05-.15.19-.53.3-.86.19-.54.31-.59 1.28-.59h1.07l-.32.64Zm-.42-1.36c-.95-.4-1.15-1.07-.52-1.75.27-.29.57-.49.69-.45.32.11.98 1.48.98 2.02s-.18.59-1.15.18Z"/></svg>