<svg xmlns="http://www.w3.org/2000/svg" width="60" height="24" fill="currentcolor" viewBox="0 0 60 24"><path fill="currentcolor" d="M12.81 13.422c-1.32.33-2.3 1.16-2.94 2.47-2.16 4.42 2.12 9.15 6.44 7.13 1.24-.58 2.65-2.05 3.01-3.14.45-1.37-.19-3.88-1.31-5.07-1.11-1.19-3.48-1.82-5.21-1.39h.01Zm1.88 1.34c.73 0 1.63.52 2.13 1.23.24.33.43.65.43.71 0 .11-1.71.56-2.15.56-.19 0-.41-.45-.61-1.25l-.31-1.25h.51Zm-2.12.6c.4-.14.73-.34.73-.43 0-.09.1-.17.23-.17.24 0 .12 1.06-.24 2-.17.44-.32.5-1.34.5-.63 0-1.15-.06-1.15-.14 0-.4 1.14-1.54 1.77-1.76Zm-.3 5.74c-.31.19-1.47-1.63-1.47-2.3v-.67l1.06.28c1.24.33 1.36.41 1.07.77-.12.15-.29.62-.36 1.05-.08.43-.21.82-.29.87h-.01Zm1.35.86c-.41-.08-.74-.19-.74-.26s.3-.48.68-.91c.37-.43.75-.8.84-.81.24-.03 1.82 1.05 1.82 1.24 0 .35-1.85.87-2.59.73l-.01.01Zm3.73-2.07c-.29.5-.56.9-.6.9-.04 0-.3-.35-.59-.78-.64-.97-.5-1.47.6-2.22.43-.29.86-.54.95-.54.38 0 .14 1.77-.37 2.63l.01.01ZM50.39 13.342c-1.22.21-1.99.66-2.82 1.63-.85.99-1.2 2.04-1.19 3.57 0 1.44.53 2.57 1.65 3.58 1.66 1.5 3.4 1.79 5.34.89 1.96-.91 3.2-2.56 3.2-4.25 0-.97-.65-2.94-1.24-3.78-.92-1.29-2.98-1.98-4.93-1.64h-.01Zm1.36 1.43c1.15 0 2.98 1.67 2.3 2.09-.16.1-.61.25-.99.32-.87.17-1.34-.28-1.65-1.53-.21-.87-.2-.88.34-.88Zm-3.15 1.67c.2-.4.65-.87.99-1.04.34-.17.66-.39.69-.47.04-.09.2-.16.36-.16.21 0 .29.28.29 1.03 0 1.24-.36 1.52-1.78 1.42l-.93-.06.36-.72h.02Zm.9 4.41c-.01.56-.26.43-1-.55-.42-.56-.68-1.14-.68-1.53v-.64l1.06.28c.58.15 1.1.31 1.14.35.04.04-.06.44-.22.9-.16.45-.3.99-.3 1.19Zm1.14 1.11c-.41-.08-.74-.2-.74-.28 0-.08.35-.49.77-.93.42-.43.8-.79.84-.79.19 0 1.72 1.12 1.72 1.26 0 .35-1.85.87-2.59.73v.01Zm3.23-1.37c-.3 0-1.05-1.17-1.05-1.64 0-.27.33-.67.86-1.06.48-.34.94-.63 1.04-.63.1 0 .18.38.18.84 0 .85-.68 2.49-1.03 2.49Z"/><path fill="currentcolor" d="M58.64 14.742v-2.81c0-1.54-.1-2.99-.21-3.21-.17-.31-.44-.4-1.2-.41-1.84 0-12.84-1.39-13.38-1.68-.29-.16-1.49-1.48-2.66-2.94-3.12-3.89-2.65-3.69-8.45-3.69-2.64 0-4.87.06-4.94.14-.08.08-.14 1.76-.14 3.74v3.6H1.04v7.23l-.52.13c-.47.12-.52.23-.52 1.17v1.04h8.33l.4-.99c.77-1.89 1.16-2.43 2.09-2.91.81-.42 1.21-.47 3.62-.47 2.45 0 2.78.05 3.47.47 1.56.96 2.26 2.27 2.26 4.22v1.34h25.16v-1.09c0-.88.18-1.41.9-2.76 1.33-2.48 1.57-2.6 5.32-2.6 2.58 0 3.13.06 3.66.38.68.42 1.29 1.63 1.89 3.73l.37 1.31 1.26-.06 1.26-.06v-2.7l-.68-.07-.68-.07.01.02Zm-17.85-8.39-.24.52h-4.83c-6.02 0-5.79.11-5.79-2.88 0-1.86.03-2.01.56-2.56.56-.58.57-.58 3.3-.58 3.35 0 3.48.07 5.69 2.97 1.41 1.85 1.52 2.07 1.3 2.54l.01-.01Z"/></svg>