<svg xmlns="http://www.w3.org/2000/svg" width="60" height="28" fill="currentcolor" viewBox="0 0 60 28"><path fill="currentcolor" d="M59.92 17.051c-.24-3.13-.88-5.96-1.42-6.25-1.18-.63-7.33-1.76-11.57-2.11-1.52-.13-2.14-.09-2.43.15-.33.27-.58.14-1.67-.92-2.45-2.35-4.88-4.2-8.64-6.55L32.14.091l-9.93-.07c-5.46-.04-10.44-.02-11.05.03-.61.05-2.62.21-4.47.36-4.36.35-4.93.46-5.22 1.02-.19.36-.12.66.33 1.33l.58.86-1.19 3.67C.53 9.311 0 11.151 0 11.391c0 .3.19.43.62.43.62 0 .62.02.62 2.23s0 2.23-.62 2.23c-.98 0-.8 1.01.84 4.61 1.14 2.5 1.58 3.22 1.99 3.29.47.07.51 0 .33-.62-.11-.38-.2-1.43-.2-2.31 0-2.02.76-3.62 2.35-4.99 2.42-2.08 5.68-2.55 8.38-1.19 2.75 1.37 3.81 3.19 3.97 6.74l.11 2.42h21.45l.12-2.33c.09-1.69.27-2.63.66-3.44 2.27-4.68 8.19-5.58 12.03-1.84 1.68 1.64 2.24 3.04 2.08 5.18-.06.86-.2 1.76-.3 1.99-.16.38-.03.43 1.06.43 1.22 0 1.28-.04 2.75-1.64 1.74-1.9 1.9-2.42 1.67-5.51l.01-.02Zm-46.87-7.48h-2.68c-3.16 0-2.94.41-2.15-4.12l.53-3.03 2.01-.24c2.94-.34 3.38-.34 3.38 0 0 .17-.24 1.9-.54 3.84l-.54 3.53-.01.02Zm4.62 2.93c-1.65.07-2.08-.08-1.62-.54.27-.27 3.42-.07 3.42.22 0 .14-.81.28-1.8.32Zm7.02-8.53-.31 3.81-.15 1.8H14.06l.16-2.42c.33-4.8.41-5.23.99-5.35.88-.17 7.98-.18 8.83 0l.8.16-.16 2.01.01-.01Zm4.72 8.58c-1.74 0-2.15-.14-1.7-.59.3-.3 3.37-.06 3.48.28.08.23-.38.31-1.78.31Zm4.73-2.98h-7.05l-.15-1.05c-.08-.58-.22-2.31-.31-3.84l-.17-2.79h6.05l1.41.96c1.86 1.27 5.42 4.42 6.45 5.7l.82 1.02h-7.05Zm21.78 5.37-2.98-.56-.08-.95-.08-.95 2.19.17c3.91.31 4.01.34 4.29 1.36.49 1.77.75 1.7-3.34.93Z"/><path fill="currentcolor" d="M51.05 15.841c-.87-.57-1.36-.7-2.92-.77-1.7-.07-2.03 0-3.44.71-2.66 1.34-4.28 3.96-3.9 6.3.32 1.97 2.29 4.39 4.25 5.21 2.91 1.22 6.74-.38 8.01-3.34 1.27-2.95.39-6.53-2-8.11Zm-3.31 1.42c.8 0 2.52.91 2.72 1.44.08.2.11.39.07.41-.49.3-2.3.83-2.47.72-.24-.15-.59-.96-.84-1.97-.14-.54-.07-.61.52-.61v.01Zm-4.42 1.82c.22-.34.8-.88 1.28-1.21 1.07-.73 2.1-.82 1.92-.17-.07.24-.25.91-.4 1.49-.3 1.16-.43 1.2-2.12.78-.73-.18-.96-.48-.69-.89h.01Zm.31 4.57c-.51-.7-.73-1.3-.73-1.96 0-.53.06-.96.13-.96s.7.29 1.38.63c.91.46 1.21.74 1.1 1.02-.08.21-.27.88-.42 1.47-.31 1.22-.45 1.2-1.47-.21l.01.01Zm4.86 1.82c-1.1.48-2.62.54-3.05.12-.07-.07.31-.62.84-1.23.53-.6 1.14-1.11 1.35-1.12.21-.01.76.37 1.22.84l.84.86-1.19.53h-.01Zm2.5-1.55c-.21.39-.62.17-1.23-.65-.5-.68-.91-1.3-.91-1.38 0-.08.47-.48 1.06-.89.58-.41 1.13-.75 1.22-.76.59-.04.49 2.53-.14 3.67v.01ZM11.32 15.031c-1.32 0-1.87.14-3.16.81-1.88.97-2.82 2.2-3.24 4.2-.25 1.21-.23 1.61.13 2.76 1.13 3.57 5.18 5.8 8.23 4.52 1.32-.55 3.23-2.49 3.83-3.89 1.74-4.05-1.26-8.41-5.79-8.41v.01Zm.47 2.23c.83 0 2.49.86 2.69 1.39.19.51.25.46-.97.77-.54.14-1.14.3-1.33.35-.27.08-.8-1.19-1.02-2.45 0-.03.27-.06.62-.06h.01Zm-4.42 1.68c.24-.42.83-.97 1.31-1.22 1.31-.7 1.49-.62 1.49.72 0 1.8-.18 1.95-1.85 1.57l-1.4-.31.45-.76Zm1.79 5.09c-.3 1.07-.48 1.02-1.49-.38-.51-.71-.73-1.3-.73-1.98v-.98l.8.54c.44.3 1 .6 1.24.67.5.15.55.78.17 2.13h.01Zm1.14 1.81c-.48-.09-.88-.25-.88-.34 0-.43 1.32-2.08 1.82-2.27.43-.17.72-.03 1.46.68.5.49.87.97.8 1.07-.29.46-2.36 1.02-3.2.87v-.01Zm3.88-1.63c-.17 0-1.28-2.05-1.28-2.35 0-.06.47-.44 1.06-.85 1.28-.91 1.33-.91 1.52-.19.24.94-.69 3.39-1.29 3.39h-.01Z"/></svg>